<?xml version="1.0" encoding="UTF-8"?>
<svg id="Layer_5" data-name="Layer 5" xmlns="http://www.w3.org/2000/svg" viewBox="0 0 905.27 205.43">
  <defs>
    <style>
      .cls-1 {
        letter-spacing: .02em;
      }

      .cls-1, .cls-2, .cls-3, .cls-4, .cls-5, .cls-6, .cls-7, .cls-8 {
        isolation: isolate;
      }

      .cls-1, .cls-2, .cls-3, .cls-4, .cls-6, .cls-7, .cls-8 {
        fill: #1a1a1a;
      }

      .cls-1, .cls-2, .cls-3, .cls-6 {
        font-family: TomatoGrotesk-Bold, 'Tomato Grotesk';
        font-size: 135.13px;
        font-weight: 700;
      }

      .cls-9 {
        letter-spacing: 0em;
      }

      .cls-3 {
        letter-spacing: -.05em;
      }

      .cls-10 {
        letter-spacing: 0em;
      }

      .cls-4 {
        letter-spacing: .44em;
      }

      .cls-4, .cls-7, .cls-8 {
        font-family: TomatoGrotesk-SemiBold, 'Tomato Grotesk';
        font-size: 46px;
        font-weight: 600;
      }

      .cls-11 {
        fill: #0e8d38;
      }

      .cls-6 {
        letter-spacing: -.02em;
      }

      .cls-12 {
        letter-spacing: .49em;
      }

      .cls-13 {
        letter-spacing: .48em;
      }

      .cls-8 {
        letter-spacing: .5em;
      }
    </style>
  </defs>
  <g class="cls-5">
    <text class="cls-2" transform="translate(276.52 124.37)"><tspan class="cls-10" x="0" y="0">T</tspan><tspan class="cls-9" x="84.05" y="0">E</tspan></text>
    <text class="cls-6" transform="translate(443.13 124.37)"><tspan x="0" y="0">X</tspan></text>
    <text class="cls-3" transform="translate(532.04 124.37)"><tspan x="0" y="0">T</tspan></text>
    <text class="cls-2" transform="translate(610.42 124.37)"><tspan x="0" y="0">O</tspan></text>
    <text class="cls-1" transform="translate(713.79 124.37)"><tspan x="0" y="0">R</tspan></text>
    <text class="cls-2" transform="translate(807.03 124.37)"><tspan x="0" y="0">A</tspan></text>
  </g>
  <g class="cls-5">
    <text class="cls-7" transform="translate(300.52 187.37)"><tspan class="cls-13" x="0" y="0">T</tspan><tspan class="cls-12" x="50.78" y="0">E</tspan></text>
    <text class="cls-8" transform="translate(402 187.37)"><tspan x="0" y="0">CHNO</tspan></text>
    <text class="cls-4" transform="translate(627.85 187.37)"><tspan x="0" y="0">L</tspan></text>
    <text class="cls-8" transform="translate(673.72 187.37)"><tspan x="0" y="0">OGI</tspan></text>
    <text class="cls-8" transform="translate(824.18 187.37)"><tspan x="0" y="0">E</tspan></text>
    <text class="cls-8" transform="translate(874.78 187.37)"><tspan x="0" y="0">S</tspan></text>
  </g>
  <g>
    <path class="cls-11" d="M175.89,9.43c-7.36,0-14.51.94-21.33,2.7-29.62,7.66-52.98,30.91-60.79,60.47-1.83,6.94-2.81,14.24-2.81,21.76v100.56c0,3.56.22,7.07.64,10.51h2.08c33.62,0,60.88-27.26,60.88-60.88v-71.95h22.19c33.62,0,60.88-27.26,60.88-60.88v-2.29h-61.75,0ZM197.18,45.56c-1.92,5.06-6.81,8.65-12.54,8.65s-10.59-3.57-12.52-8.6c-25.03,1.15-45.02,21.87-45.02,47.17v49.51l-8.65-8.65v-40.86c0-29.96,23.71-54.49,53.34-55.82,1.65-5.54,6.78-9.58,12.85-9.58s11.17,4.01,12.84,9.52c.38,1.23.58,2.54.58,3.89,0,1.67-.31,3.28-.87,4.76h0Z"/>
    <path class="cls-11" d="M136.53,9.43c-13.61,6.31-25.43,15.78-34.54,27.47h-28.26c-1.67-5.51-6.78-9.52-12.84-9.52s-11.17,4.01-12.84,9.52c-.38,1.23-.58,2.54-.58,3.89,0,1.67.31,3.28.87,4.76,1.92,5.06,6.81,8.65,12.54,8.65s10.62-3.6,12.54-8.65h22.58c-4.66,7.62-8.26,15.96-10.6,24.83-.19.74-.38,1.47-.55,2.21H8.31v-2.29c0-4.56.5-8.99,1.45-13.26,1.07-4.81,2.71-9.41,4.84-13.72C24.55,23.23,45.25,9.42,69.19,9.42h67.34Z"/>
  </g>
</svg>